<svg width="199" height="30" viewBox="0 0 199 30" fill="none" xmlns="http://www.w3.org/2000/svg">
<path d="M22.5 11.25L20.9375 7.8125L17.5 6.25L20.9375 4.6875L22.5 1.25L24.0625 4.6875L27.5 6.25L24.0625 7.8125L22.5 11.25ZM22.5 28.75L20.9375 25.3125L17.5 23.75L20.9375 22.1875L22.5 18.75L24.0625 22.1875L27.5 23.75L24.0625 25.3125L22.5 28.75ZM10 25L6.875 18.125L0 15L6.875 11.875L10 5L13.125 11.875L20 15L13.125 18.125L10 25ZM10 18.9375L11.25 16.25L13.9375 15L11.25 13.75L10 11.0625L8.75 13.75L6.0625 15L8.75 16.25L10 18.9375Z" fill="#4713AE"/>
<path d="M40.1753 24V22.7275H40.8354C41.1038 22.7275 41.3559 22.6961 41.5916 22.6334C41.8273 22.5707 42.0232 22.4349 42.1793 22.2261C42.3355 22.0173 42.4136 21.7041 42.4136 21.2865V9.60145C42.4136 9.16786 42.3308 8.84898 42.1654 8.64483C42 8.44067 41.7971 8.30491 41.5568 8.23755C41.3165 8.1702 41.076 8.13652 40.8354 8.13652H40.1753V6.864H47.9121C49.5362 6.864 50.846 7.04528 51.8415 7.40784C52.837 7.77041 53.5611 8.29169 54.0137 8.97169C54.4664 9.65169 54.6927 10.4746 54.6927 11.4403C54.6927 12.3254 54.5283 13.0623 54.1995 13.651C53.8707 14.2396 53.4453 14.7053 52.9232 15.048C52.4011 15.3907 51.8382 15.6534 51.2343 15.8362L54.2021 20.71C54.6274 21.4057 55.0111 21.9159 55.3534 22.2405C55.6956 22.5652 56.0869 22.7275 56.5272 22.7275H56.6549V24H55.8595C54.9046 24 54.0978 23.9457 53.4391 23.837C52.7803 23.7284 52.2273 23.5181 51.7799 23.2061C51.3325 22.8941 50.9434 22.4387 50.6125 21.84L47.7902 16.5653H46.2158V21.2865C46.2158 21.7041 46.2823 22.0173 46.4153 22.2261C46.5482 22.4349 46.7302 22.5707 46.9612 22.6334C47.1923 22.6961 47.4467 22.7275 47.7244 22.7275H48.1895V24H40.1753ZM47.5478 15.1728C48.6866 15.1728 49.4882 14.877 49.9525 14.2855C50.4168 13.694 50.649 12.8114 50.649 11.6376C50.649 10.8293 50.5383 10.1791 50.3168 9.68691C50.0954 9.19475 49.7521 8.83731 49.287 8.61459C48.8219 8.39188 48.2262 8.28052 47.4998 8.28052H46.2158V15.1728H47.5478ZM60.8245 24.24C60.1298 24.24 59.4961 24.0977 58.9234 23.813C58.3508 23.5284 57.8975 23.0965 57.5636 22.5172C57.2297 21.938 57.0627 21.2078 57.0627 20.3267C57.0627 19.0213 57.5071 18.0604 58.3959 17.4439C59.2848 16.8274 60.6337 16.4867 62.4428 16.4218L64.4014 16.3488V15.0202C64.4014 14.4349 64.3557 13.9408 64.2644 13.5379C64.173 13.135 64.0068 12.8265 63.7657 12.6123C63.5246 12.398 63.1844 12.2909 62.7451 12.2909C62.338 12.2909 62.0139 12.3936 61.7728 12.5991C61.5317 12.8045 61.3592 13.0986 61.2552 13.4813C61.1512 13.864 61.0992 14.3299 61.0992 14.8791C60.0838 14.8791 59.3252 14.7561 58.8234 14.5102C58.3216 14.2643 58.0707 13.8523 58.0707 13.2743C58.0707 12.6793 58.2951 12.2034 58.744 11.8464C59.1928 11.4894 59.7928 11.2301 60.5439 11.0686C61.2951 10.9071 62.1195 10.8264 63.0172 10.8264C64.7027 10.8264 65.9651 11.1314 66.8045 11.7415C67.6438 12.3516 68.0635 13.4052 68.0635 14.9025V21.0254C68.0635 21.4667 68.1094 21.8094 68.2013 22.0537C68.2931 22.298 68.4461 22.4714 68.6604 22.5738C68.8746 22.6763 69.1578 22.7275 69.5098 22.7275H69.5957V24H65.1305L64.6213 22.3537H64.4014C64.0561 22.7831 63.7258 23.1373 63.4104 23.4164C63.0951 23.6954 62.7393 23.9024 62.3432 24.0375C61.947 24.1725 61.4408 24.24 60.8245 24.24ZM62.1546 22.4875C62.6167 22.4875 63.0164 22.3608 63.3539 22.1073C63.6913 21.8539 63.9526 21.4961 64.1377 21.0338C64.3228 20.5716 64.4153 20.0323 64.4153 19.416V17.6112L63.3359 17.6832C62.6949 17.7152 62.1911 17.8396 61.8242 18.0564C61.4573 18.2732 61.1944 18.5776 61.0354 18.9695C60.8763 19.3614 60.7968 19.8458 60.7968 20.4225C60.7968 20.8721 60.8456 21.2517 60.9432 21.5611C61.0408 21.8705 61.191 22.1023 61.3939 22.2564C61.5968 22.4104 61.8503 22.4875 62.1546 22.4875ZM71.7157 13.5552C71.6037 13.2471 71.4763 13.0103 71.3336 12.8448C71.1909 12.6794 71.0092 12.5653 70.7886 12.5026C70.5679 12.4399 70.2803 12.4085 69.9258 12.4085V11.136H77.2344V12.4085H76.6161C76.2104 12.4085 75.9154 12.4796 75.731 12.6219C75.5467 12.7641 75.4546 12.9842 75.4546 13.2821C75.4546 13.4379 75.4752 13.5948 75.5165 13.7527C75.5578 13.9106 75.6058 14.0683 75.6605 14.2258L77.2368 18.7618C77.3623 19.0901 77.4761 19.4219 77.5783 19.7572C77.6806 20.0926 77.7754 20.4109 77.8629 20.7122C77.9505 21.0134 78.0203 21.2988 78.0725 21.5682C78.1432 21.2508 78.2532 20.8765 78.4024 20.4453C78.5517 20.0141 78.6886 19.6173 78.813 19.2547L80.4297 14.4216C80.5097 14.211 80.568 14.0138 80.6046 13.8298C80.6413 13.6458 80.6596 13.4619 80.6596 13.2782C80.6596 13.0107 80.5624 12.7989 80.368 12.6428C80.1736 12.4866 79.8588 12.4085 79.4236 12.4085H79.0607V11.136H84.3359V12.4085H83.853C83.614 12.4085 83.4084 12.4565 83.2362 12.5525C83.0641 12.6485 82.905 12.8232 82.7589 13.0767C82.6128 13.3301 82.4577 13.6896 82.2935 14.1552L78.8218 24H75.5101L71.7157 13.5552ZM91.0794 24.24C89.0291 24.24 87.4795 23.6617 86.4305 22.505C85.3816 21.3484 84.8571 19.7254 84.8571 17.6362C84.8571 15.3869 85.3768 13.6896 86.4162 12.5443C87.4555 11.399 88.9207 10.8264 90.8116 10.8264C92.5585 10.8264 93.9316 11.3134 94.931 12.2873C95.9304 13.2612 96.4301 14.7002 96.4301 16.6042V17.8335H88.5634C88.5954 19.4382 88.8928 20.6065 89.4557 21.3381C90.0185 22.0698 90.8389 22.4356 91.9166 22.4356C92.7393 22.4356 93.4148 22.2428 93.9432 21.857C94.4715 21.4712 94.8703 21.002 95.1398 20.4494C95.3632 20.5159 95.553 20.6398 95.7093 20.8209C95.8657 21.002 95.9438 21.2291 95.9438 21.502C95.9438 21.9148 95.7779 22.3331 95.4461 22.7568C95.1142 23.1805 94.5922 23.5336 93.88 23.8162C93.1679 24.0987 92.2343 24.24 91.0794 24.24ZM92.7531 16.3008C92.7531 15.0765 92.6081 14.1181 92.3182 13.4256C92.0283 12.7331 91.5426 12.3869 90.861 12.3869C90.1945 12.3869 89.6613 12.7207 89.2615 13.3884C88.8617 14.0561 88.645 15.0269 88.6114 16.3008H92.7531ZM97.3371 24V22.7275H97.4734C97.8414 22.7275 98.1572 22.6898 98.4207 22.6144C98.6842 22.5391 98.89 22.382 99.0382 22.1433C99.1863 21.9046 99.2604 21.5465 99.2604 21.0691V13.9709C99.2604 13.5187 99.191 13.1813 99.0521 12.9586C98.9132 12.7359 98.7184 12.5885 98.4675 12.5165C98.2166 12.4445 97.9152 12.4085 97.5632 12.4085H97.4571V11.136H102.515L102.827 12.8433H102.947C103.331 12.1794 103.806 11.6772 104.371 11.3369C104.936 10.9966 105.686 10.8264 106.621 10.8264C107.894 10.8264 108.871 11.1914 109.55 11.9215C110.23 12.6516 110.569 13.8313 110.569 15.4608V21.0273C110.569 21.514 110.627 21.8791 110.742 22.1224C110.857 22.3658 111.031 22.5275 111.266 22.6075C111.501 22.6875 111.795 22.7275 112.147 22.7275H112.253V24H106.921V16.1098C106.921 15.0791 106.788 14.2804 106.521 13.7137C106.254 13.1469 105.768 12.8636 105.061 12.8636C104.526 12.8636 104.103 13.0366 103.79 13.3827C103.478 13.7288 103.255 14.1839 103.122 14.748C102.989 15.3122 102.923 15.9244 102.923 16.5845V21.1612C102.923 21.6067 102.99 21.9408 103.124 22.1635C103.258 22.3862 103.451 22.5359 103.702 22.6125C103.952 22.6892 104.254 22.7275 104.606 22.7275H104.712V24H97.3371ZM118.58 24V22.728H119.564C119.797 22.728 120.008 22.6919 120.196 22.6196C120.383 22.5474 120.533 22.3993 120.645 22.1755C120.756 21.9516 120.812 21.6158 120.812 21.168V9.672C120.812 9.23269 120.756 8.90687 120.644 8.69453C120.532 8.4822 120.381 8.33603 120.19 8.25603C119.999 8.17603 119.791 8.13603 119.564 8.13603H118.58V6.864H125.588C127.876 6.864 129.592 7.21783 130.736 7.92548C131.88 8.63313 132.452 9.7353 132.452 11.232C132.452 11.936 132.324 12.5237 132.068 12.9952C131.812 13.4666 131.46 13.8506 131.012 14.1472C130.564 14.4437 130.036 14.688 129.428 14.88V15.008C130.164 15.1787 130.812 15.456 131.372 15.84C131.932 16.224 132.372 16.7 132.692 17.268C133.012 17.836 133.172 18.512 133.172 19.296C133.172 20.864 132.596 22.04 131.444 22.824C130.292 23.608 128.58 24 126.308 24H118.58ZM126.188 22.536C127.267 22.536 128.029 22.2866 128.473 21.788C128.918 21.2893 129.14 20.4355 129.14 19.2267C129.14 18.4409 129.051 17.7922 128.872 17.2805C128.693 16.7688 128.393 16.3888 127.972 16.1405C127.551 15.8922 126.972 15.768 126.236 15.768H124.604V22.536H126.188ZM125.516 14.304C126.263 14.304 126.845 14.1986 127.262 13.9878C127.68 13.7769 127.977 13.4456 128.154 12.9939C128.331 12.5421 128.42 11.9548 128.42 11.232C128.42 10.144 128.2 9.38802 127.76 8.96402C127.32 8.54003 126.556 8.32803 125.468 8.32803H124.604V14.304H125.516ZM140.783 24.24C138.733 24.24 137.184 23.6617 136.135 22.505C135.086 21.3484 134.561 19.7254 134.561 17.6362C134.561 15.3869 135.081 13.6896 136.12 12.5443C137.16 11.399 138.625 10.8264 140.516 10.8264C142.262 10.8264 143.636 11.3134 144.635 12.2873C145.634 13.2612 146.134 14.7002 146.134 16.6042V17.8335H138.267C138.299 19.4382 138.597 20.6065 139.16 21.3381C139.723 22.0698 140.543 22.4356 141.621 22.4356C142.443 22.4356 143.119 22.2428 143.647 21.857C144.175 21.4712 144.574 21.002 144.844 20.4494C145.067 20.5159 145.257 20.6398 145.413 20.8209C145.57 21.002 145.648 21.2291 145.648 21.502C145.648 21.9148 145.482 22.3331 145.15 22.7568C144.818 23.1805 144.296 23.5336 143.584 23.8162C142.872 24.0987 141.938 24.24 140.783 24.24ZM142.457 16.3008C142.457 15.0765 142.312 14.1181 142.022 13.4256C141.732 12.7331 141.247 12.3869 140.565 12.3869C139.898 12.3869 139.365 12.7207 138.965 13.3884C138.566 14.0561 138.349 15.0269 138.315 16.3008H142.457ZM151.4 24.24C150.706 24.24 150.072 24.0977 149.499 23.813C148.927 23.5284 148.474 23.0965 148.14 22.5172C147.806 21.938 147.639 21.2078 147.639 20.3267C147.639 19.0213 148.083 18.0604 148.972 17.4439C149.861 16.8274 151.21 16.4867 153.019 16.4218L154.977 16.3488V15.0202C154.977 14.4349 154.932 13.9408 154.84 13.5379C154.749 13.135 154.583 12.8265 154.342 12.6123C154.101 12.398 153.76 12.2909 153.321 12.2909C152.914 12.2909 152.59 12.3936 152.349 12.5991C152.108 12.8045 151.935 13.0986 151.831 13.4813C151.727 13.864 151.675 14.3299 151.675 14.8791C150.66 14.8791 149.901 14.7561 149.399 14.5102C148.898 14.2643 148.647 13.8523 148.647 13.2743C148.647 12.6793 148.871 12.2034 149.32 11.8464C149.769 11.4894 150.369 11.2301 151.12 11.0686C151.871 10.9071 152.695 10.8264 153.593 10.8264C155.279 10.8264 156.541 11.1314 157.38 11.7415C158.22 12.3516 158.64 13.4052 158.64 14.9025V21.0254C158.64 21.4667 158.685 21.8094 158.777 22.0537C158.869 22.298 159.022 22.4714 159.236 22.5738C159.451 22.6763 159.734 22.7275 160.086 22.7275H160.172V24H155.707L155.197 22.3537H154.977C154.632 22.7831 154.302 23.1373 153.986 23.4164C153.671 23.6954 153.315 23.9024 152.919 24.0375C152.523 24.1725 152.017 24.24 151.4 24.24ZM152.731 22.4875C153.193 22.4875 153.592 22.3608 153.93 22.1073C154.267 21.8539 154.529 21.4961 154.714 21.0338C154.899 20.5716 154.991 20.0323 154.991 19.416V17.6112L153.912 17.6832C153.271 17.7152 152.767 17.8396 152.4 18.0564C152.033 18.2732 151.77 18.5776 151.611 18.9695C151.452 19.3614 151.373 19.8458 151.373 20.4225C151.373 20.8721 151.422 21.2517 151.519 21.5611C151.617 21.8705 151.767 22.1023 151.97 22.2564C152.173 22.4104 152.426 22.4875 152.731 22.4875ZM166.693 24.24C165.309 24.24 164.291 23.8541 163.64 23.0822C162.989 22.3104 162.664 21.1144 162.664 19.4942V14.1101C162.664 13.6394 162.611 13.2834 162.506 13.0421C162.401 12.8008 162.233 12.6349 162.002 12.5444C161.771 12.4538 161.461 12.4085 161.072 12.4085H160.986V11.136H166.326V18.8174C166.326 19.4961 166.381 20.0904 166.491 20.6003C166.601 21.1102 166.787 21.5048 167.048 21.784C167.31 22.0632 167.672 22.2028 168.136 22.2028C168.654 22.2028 169.075 22.0527 169.397 21.7526C169.72 21.4524 169.955 21.0289 170.103 20.482C170.251 19.9352 170.324 19.2916 170.324 18.5515V13.9416C170.324 13.476 170.257 13.1348 170.123 12.918C169.989 12.7012 169.804 12.5621 169.568 12.5007C169.333 12.4392 169.059 12.4085 168.746 12.4085H168.66V11.136H173.973V21.2169C173.973 21.6717 174.041 22.0081 174.179 22.2261C174.317 22.4442 174.508 22.5823 174.753 22.6404C174.998 22.6984 175.273 22.7275 175.579 22.7275H175.776V24H170.985L170.465 22.2927H170.345C169.932 22.9845 169.426 23.482 168.825 23.7852C168.225 24.0884 167.514 24.24 166.693 24.24ZM181.866 24.24C180.641 24.24 179.701 23.957 179.047 23.3911C178.393 22.8252 178.066 21.845 178.066 20.4504V12.7685H176.27V11.544C176.79 11.544 177.254 11.4422 177.661 11.2387C178.069 11.0352 178.392 10.802 178.629 10.5393C178.873 10.2885 179.09 9.9643 179.28 9.56686C179.47 9.16942 179.621 8.69919 179.733 8.15616H181.728V11.136H184.802V12.7685H181.728V20.2022C181.728 20.9161 181.852 21.4418 182.1 21.7794C182.348 22.117 182.753 22.2858 183.315 22.2858C183.622 22.2858 183.918 22.2652 184.205 22.2239C184.491 22.1826 184.762 22.1333 185.018 22.0761V23.6333C184.764 23.7571 184.359 23.8892 183.804 24.0295C183.249 24.1698 182.603 24.24 181.866 24.24ZM185.539 28.103C186.374 28.103 187.085 28.0039 187.672 27.8056C188.26 27.6074 188.754 27.3288 189.157 26.9697C189.559 26.6107 189.892 26.1896 190.157 25.7064C190.422 25.2232 190.65 24.6967 190.842 24.1267L186.527 13.5552C186.402 13.2285 186.272 12.9847 186.137 12.8239C186.002 12.6631 185.846 12.5537 185.668 12.4956C185.49 12.4376 185.264 12.4085 184.99 12.4085H184.891V11.136H191.806V12.4085H191.706C191.208 12.4085 190.848 12.4843 190.626 12.6358C190.405 12.7873 190.294 13.0259 190.294 13.3517C190.294 13.4983 190.315 13.6528 190.356 13.8154C190.397 13.9779 190.45 14.1472 190.514 14.3232L191.987 18.3029C192.12 18.6337 192.238 18.9774 192.344 19.3339C192.45 19.6903 192.543 20.0268 192.625 20.3433C192.706 20.6597 192.762 20.9308 192.791 21.1564C192.866 20.7573 192.959 20.3794 193.068 20.0227C193.178 19.6659 193.285 19.3357 193.389 19.032L194.9 14.5469C194.961 14.392 195.017 14.1924 195.068 13.9481C195.119 13.7038 195.144 13.5083 195.144 13.3618C195.144 13.0107 195.028 12.7664 194.797 12.6288C194.565 12.4912 194.204 12.4178 193.713 12.4085H193.613V11.136H198.786V12.4085H198.7C198.405 12.4178 198.149 12.4774 197.932 12.5873C197.715 12.6972 197.526 12.8789 197.364 13.1324C197.203 13.3858 197.04 13.7267 196.876 14.1552L193.242 23.9985C192.835 25.1016 192.445 26.0095 192.07 26.7223C191.695 27.4351 191.26 27.9932 190.765 28.3965C190.27 28.7999 189.64 29.0839 188.876 29.2485C188.111 29.4132 187.136 29.4955 185.95 29.4955H185.539V28.103Z" fill="#4713AE"/>
</svg>
